<?xml version="1.0" encoding="UTF-8" standalone="no"?>
<svg xmlns:rdf="http://www.w3.org/1999/02/22-rdf-syntax-ns#" xmlns="http://www.w3.org/2000/svg" height="545" viewBox="0 0 272 545" width="272" version="1.1" xmlns:cc="http://creativecommons.org/ns#" xmlns:dc="http://purl.org/dc/elements/1.1/">
<path d="m207.5 543.39c-4.6298-1.6765-6.8007-5.6024-16.948-30.649-1.9508-4.8152-4.4173-10.665-5.4813-13-1.0639-2.3348-3.5559-8.2951-5.5377-13.245-1.9818-4.95-4.031-9.9-4.5539-11-1.1841-2.4913-5.0782-12-14.129-34.5-3.8716-9.625-8.3135-20.243-9.8711-23.596-1.5575-3.3527-4.3997-10.156-6.316-15.117-1.9163-4.9618-4.6772-11.63-6.1354-14.818s-3.2569-7.4102-3.9971-9.3827c-2.94-7.83-7.85-19.92-10.6-26.08-1.59-3.58-6.24-14.82-10.32-25-8.76-21.83-15.134-37.32-17.094-41.54-2.386-5.14-9.562-24.55-12.004-32.46-9.579-31.04-9.85-31.94-12.404-41.25-0.49035-1.7875-2.5153-8.3492-4.5-14.582-4.124-12.95-4.397-16.46-1.608-20.67 2.49-3.76 2.482-4.26-0.171-10.17-2.861-6.37-4.3-10.12-7.795-20.33-4.397-12.84-16.995-42.79-19.712-46.862-0.969-1.451-2.56-4.213-3.536-6.138-0.975-1.925-3.126-4.938-4.78-6.696-1.653-1.757-3.006-3.488-3.006-3.845 0-0.358-0.873-1.876-1.94-3.375-2.176-3.055-10.828-24.642-16.868-42.084-2.1897-6.325-4.929-13.879-6.0869-16.787-1.1578-2.908-2.1051-5.964-2.1051-6.792 0-1.503 9.494-6.3289 19.5-9.9117 2.75-0.9847 5.505-2.1849 6.123-2.6671 1.254-0.97894 4.377-0.10188 4.377 1.2294 0 1.033 7.407 15.993 16.056 32.428 11.656 22.15 14.618 28.862 15.89 36 1.5879 8.9113 6.1255 21.639 11.587 32.5 2.3508 4.675 5.694 11.875 7.4294 16s3.5653 8.4 4.0666 9.5c0.50123 1.1 2.7576 6.275 5.0141 11.5 7.5606 17.506 7.8491 17.944 12.628 19.147 5.3874 1.3566 7.882 3.8583 13.549 13.587 12.51 21.48 18.78 32.42 18.78 32.79 0 0.22388 3.2625 5.9335 7.25 12.688 10.489 17.768 17.173 31.718 31.755 66.281 5.5691 13.2 11.025 25.969 12.124 28.375 1.0992 2.4061 2.8359 6.4561 3.8593 9s3.2447 7.4449 4.9362 10.891c1.6915 3.4463 3.0755 6.6396 3.0755 7.0964 0 0.45674 0.62592 2.1371 1.3909 3.7341 0.76502 1.597 2.0594 4.4786 2.8764 6.4036 1.5459 3.6424 9.7054 22.546 12.734 29.5 0.95796 2.2 2.9814 6.925 4.4966 10.5s3.8231 8.8748 5.1287 11.777c1.3056 2.9025 2.3738 5.4411 2.3738 5.6412 0 0.20013 2.925 6.5198 6.5 14.044 3.575 7.5238 6.5 14.149 6.5 14.723 0 0.57361 0.87868 2.6792 1.9526 4.6791 2.8621 5.3298 8.7077 18.246 9.566 21.136 0.40829 1.375 1.5396 4.3 2.5141 6.5 0.97446 2.2 5.0081 11.425 8.9636 20.5 3.9556 9.075 7.5673 17.23 8.0261 18.122 2.8414 5.5235-1.3831 15.594-8.5991 20.499-17.958 12.207-44.066 19.704-54.923 15.773zm22.5-3.5781c11.961-3.7215 29.096-12.184 33.416-16.504 3.9368-3.9368 2.292-3.9917-3.1191-0.10423-8.8816 6.3807-28.498 14.246-40.547 16.258-2.0625 0.34434-3.75 1.1137-3.75 1.7096 0 1.2301 8.2542 0.4291 14-1.3586zm17.5-13.765c5.8-2.5207 12.331-7.5522 11.231-8.6522-0.41575-0.41574-1.9879 0.15059-3.4936 1.2585s-6.6607 3.9549-11.456 6.3265c-4.7948 2.3716-8.4903 4.6803-8.2121 5.1303 0.49375 0.79891 1.6441 0.40712 11.93-4.0631zm-13-9.0163c2.2-0.69171 5.35-1.8172 7-2.5012 11.766-4.8771 22.619-4.685 25.176 0.44562l1.1925 2.3919 0.65965-2.6283c1.4404-5.739-14.677-8.6749-23.205-4.2269-1.5529 0.80995-3.8094 1.4754-5.0144 1.4788-1.205 0.003-2.4691 0.45616-2.809 1.0062-0.33992 0.55-1.4244 1-2.4101 1-3.58 0.02-22.09 11.78-22.09 14.05 0 0.4341 3.9375-1.5794 8.75-4.4744s10.55-5.8296 12.75-6.5213zm-24.5 7.8576c0-1.7806-3.4579-0.46807-3.8278 1.453-0.30042 1.56-0.0508 1.661 1.7385 0.70333 1.1491-0.61498 2.0893-1.5853 2.0893-2.1563zm-7.4729 0.0647c0.93716-1.5164-1.6029-4.2803-2.8175-3.0658-1.1215 1.1215-0.24899 4.1096 1.2 4.1096 0.5348 0 1.2627-0.46971 1.6175-1.0438zm10.549-7.7652c0.0888-5.4733 1.9956-11.382 3.8755-12.008 1.2913-0.43043 0.99694 4.7517-0.66446 11.698-0.31316 1.3092-0.16571 2.2092 0.32764 2 16.5-6.98 21.57-11.86 12.33-11.86-2.6868 0-4.3483-3.4274-2.4324-5.0174 1.9044-1.5805 1.9176-4.9826 0.0195-4.9826-2.5999 0-6.5467-5.1198-5.4814-7.1104 1.37-2.57 1.15-3.89-0.64-3.89-0.87084 0-1.3842-0.5625-1.1408-1.25s1.5563-1.1755 2.9176-1.0844c1.7547 0.11738 2.9599-0.65518 4.1408-2.6543 2.18-3.7 2.1-5.01-0.34-5.01-1.1 0-2-0.50248-2-1.1166 0-0.62412 0.8817-0.88606 1.999-0.59388 2.4135 0.63114 3.352-0.60807 2.4982-3.2984-0.97067-3.0583-6.3214-0.27875-6.4639 3.3578-0.0853 2.1764-3.4106 7.6511-4.6472 7.6511-1.656 0-1.8422-3.1439-0.2787-4.7074 0.80981-0.80981 0.53359-1.4144-1.028-2.2502-2.61-1.39-1.83-3.04 1.44-3.04 2.6189 0 4.9851-3.2314 4.0846-5.5781-0.96254-2.5084-4.4628-1.604-6.1084 1.5781-2.0672 3.9976-3.5 3.7929-3.5-0.5 0-2.8333-0.38095-3.5-2-3.5-3.7123 0-2.2247-2.8602 1.6589-3.1896 5.0523-0.42856 8.128-5.896 6.349-11.286-1.3002-3.9396-4.266-4.779-5.926-1.6773-1.0904 2.0375 0.28568 4.1532 2.7013 4.1532 0.76084 0 1.1955 0.5625 0.9659 1.25-0.25286 0.75716-1.6967 1.1185-3.662 0.91639-2.2131-0.22756-3.6481 0.21836-4.5142 1.4028-0.69833 0.95502-1.788 1.4161-2.4214 1.0246-1.8199-1.1247-1.3432-5.1104 0.8483-7.0938 2.5988-2.3519 2.5384-4.1259-0.16445-4.8328-1.8436-0.48212-1.9706-0.7996-0.85662-2.1419 1.1893-1.433 1.4696-1.4295 3.0924 0.0391 1.7678 1.5998 4.9287-1.937 4.9287-5.5149 0-3.76-7.1877-0.87947-9.2094 3.6907-1.9706 4.455-2.1573 4.605-3.1004 2.4915-0.69057-1.5476-0.65458-3.0147 0.11542-4.7047 1.2204-2.6785 1.0209-2.9336-3.0557-3.908-4.25-1.02-3.25-2.62 1.63-2.62 3.9514 0 4.5037-0.30172 5.6596-3.0924 2.0936-5.0543-3.3741-7.0964-6.4463-2.4076-2.2319 3.4064-4.3565 3.2683-3.8484-0.25 0.30455-2.1088-0.12879-2.9832-1.8585-3.75-4.1767-1.8516-3.6467-3.8774 0.8273-3.162 3.8784 0.62019 6.2877-1.3953 6.2877-5.2601 0-1.6978-6.0864-2.0675-8.4578-0.51368-2.2428 1.4696-2.4129 1.4014-3.8898-1.5591-1.4915-2.9898-1.4627-3.1269 0.84075-4.0026 2.31-0.88 4.5-3.76 4.5-5.93 0-0.63-2.27-1.07-5.5-1.07-6.0108 0-6.2323-0.31164-4.0066-5.6384 1.75-4.17 1.3-5.36-2.03-5.36-3.4654 0-6.0132-4.1054-4.4085-7.1038 1.1922-2.2276 0.008-4.0418-3.3744-5.1692-2.1301-0.71002 0.50463-2.7185 2.8078-2.1405 2.7245 0.6838 6.9264-5.2053 4.296-6.021-4.8394-1.5008-6.8631-1.5254-7.4139-0.0901-0.32176 0.83851-1.3421 1.5246-2.2675 1.5246-2.5179 0-2.065-4.8905 0.71317-7.6998 3.8209-3.8638 2.647-6.8209-2.6624-6.7068l-4.3457 0.0934 0.66761-5.3434c0.66-5.19 0.6-5.34-1.79-5.34-2.02 0-3.68-1.6-3.68-3.53 0-0.19988 2.1375-0.50057 4.75-0.66821 5.544-0.35574 7.1192-3.3821 3.1921-6.1328-2.29-1.604-4.9203-1.2418-4.9739 0.68499-0.0175 0.62865-0.69418 2.0188-1.5038 3.0893-2.1656 2.8634-3.8744 0.76215-2.4426-3.0037 0.91404-2.4041 0.80774-3.094-0.63984-4.1525-2.0158-1.474-1.31-2.5559 1.8177-2.7864 3.0272-0.22302 4.4478-5.2828 2.0092-7.156-2.4598-1.8895-4.3173-1.2624-6.1712 2.0834-2.5795 4.6554-4.2094 4.4947-3.4365-0.33886 0.44-2.76 0.29-4.09-0.47-4.09-0.62 0-1.13-0.68-1.13-1.5 0-0.92762 0.94054-1.5 2.4648-1.5 3.2084 0 4.8668-2.9975 3.5601-6.4345-1.2247-3.2211-5.5203-3.6029-6.3157-0.56134-0.62711 2.3981-3.7092 1.6747-3.7092-0.87057 0-0.90886-0.9-2.2145-2-2.9015-3.0272-1.8905-2.4046-3.2321 1.5-3.2321 3.3333 0 3.5-0.16667 3.5-3.5v-3.5h-4.941c-5.2769 0-7.2418-1.3853-4.7042-3.3165 4.93-3.75 4.05-8.68-1.55-8.68-4.0531 0-4.069-0.0149-3.458-3.25 1.3284-7.0337 1.3302-7.0276-2.3521-7.9858-4.9156-1.2792-6.4822-2.9946-5.0976-5.5818 1.6275-3.041 1.3336-5.1824-0.71125-5.1824-3.3251 0-5.1884-2.3299-5.4866-6.8608-0.17752-2.6968-0.93908-4.8376-1.9958-5.6102-2.56-1.88-2.16-4.53 0.68-4.53 2.5197 0 3.8964-1.9137 2.732-3.7976-2.93-4.74-22.12 11.66-22.12 18.92 0 1.3641-0.52093 3.0011-1.1576 3.6378-1.5329 1.5329 0.31417 3.8139 3.7961 4.6878 2.6264 0.65919 2.686 1.2703 0.7572 7.7713-0.36114 1.2172 0.22822 1.9018 2.0256 2.3529 2.9657 0.74434 6.1863 6.2228 4.5942 7.815-1.7456 1.7456-1.1156 4.2239 1.4186 5.5801 2.9438 1.5755 5.0068 6.1428 4.2095 9.3195-0.40009 1.5941 0.0351 2.8523 1.3867 4.0096 1.0834 0.92761 1.9698 2.591 1.9698 3.6964s0.48391 2.0098 1.0754 2.0098c0.59145 0 0.99376 1.2375 0.89403 2.75-0.29098 4.413-0.0803 4.9877 2.0306 5.5398 1.1 0.28766 2 1.2487 2 2.1357 0 1.2192-0.60765 1.4602-2.4907 0.98755-3.0004-0.75305-4.2167 1.3967-2.5511 4.5089 1.3411 2.5058 2.9014 2.6524 4.5299 0.42536 1.6666-2.2792 3.512-0.83785 3.512 2.7432 0 1.7196 0.6322 3.215 1.5 3.548 2.1738 0.83418 1.8423 3.3616-0.44098 3.3616-2.543 0-3.5368 1.7193-2.0379 3.5254 1.0365 1.2489 1.4712 1.2432 3.3086-0.0438 2.9098-2.0381 3.9238-1.8557 3.1548 0.56734-0.38285 1.2063 0.0102 3.057 0.95566 4.5 1.5118 2.3074 1.4937 2.451-0.31008 2.451-2.6146 0-3.2974 2.3161-1.4572 4.9433 1.1758 1.6788 2.1544 2.034 4.3033 1.562 3.6638-0.80471 5.0375 4.8063 1.9056 7.7837-2.6971 2.564 0.57372 7.711 4.9002 7.711 1.7479 0 3.8987 3.2644 2.4681 3.746-2.9202 0.98285-1.2764 6.6644 2.8221 9.754 3.7341 2.815 3.9543 3.2654 3.5705 7.3035-0.34912 3.6736-0.0602 4.532 1.9742 5.865 3.0995 2.0309 3.028 3.3315-0.18323 3.3315-2.2081 0-2.5222 0.38279-2.25 2.7414 0.38637 3.3475 3.3642 4.2588 4.2984 1.3154 0.35905-1.1313 1.2975-2.0569 2.0854-2.0569 1.4689 0 1.7744 0.93804 1.4932 4.586-0.0884 1.1473 0.53677 2.6649 1.3893 3.3724 2.2904 1.9008 1.9925 4.3905-0.44893 3.7521-2.4619-0.64379-3.3744 0.66557-2.6038 3.736 0.86581 3.4497 3.4381 4.009 4.7902 1.0416 1.4402-3.1608 3.8126-1.5582 3.8126 2.5753 0 1.5502 0.47931 3.1148 1.0651 3.4768 0.69908 0.43205 0.48556 1.2987-0.62128 2.5218-2.3658 2.6142-1.1543 4.938 2.5744 4.938h3.081l-0.67399 5.9573-0.67399 5.9573 3.4584-0.56122c3.391-0.55028 3.461-0.49097 3.5939 3.0427 0.0745 1.9822-0.30081 3.6039-0.83406 3.6039-2.4121 0-0.7833 3.8693 2.0436 4.8548 3.3771 1.1773 4.8315 3.7006 3.1196 5.4125-2.3079 2.3079-1.3546 6.6417 1.6172 7.352 4.0388 0.96535 4.0531 0.98907 3.2502 5.3798-0.681 3.7241-0.5184 4.1725 2.0666 5.6995 3.0277 1.7885 4.1902 4.6028 3.3029 7.996-0.39579 1.5135 0.0591 2.4646 1.5641 3.27 2.1277 1.1387 1.9448 3.2156-0.25918 2.9435-2.968-0.3664-3.4071 0.16469-2.7585 3.3359 0.76195 3.7255 3.5563 4.8818 4.361 1.8045 1.971-7.5371 3.3035 1.6957 1.4594 10.112-0.13008 0.59365 1.5635 1.6087 3.7635 2.2556 3.9713 1.1678 3.9988 1.2101 3.8315 5.8802-0.15601 4.355 0.0109 4.7039 2.25 4.7039 1.3302 0 2.4185 0.47656 2.4185 1.059 0 0.58246 0.45 0.7809 1 0.44098s1.0342-2.729 1.0761-5.309zm-6.081-12.858c-0.008-2.9974 3.2695-11.221 4.6895-11.766 1.8121-0.69539 1.6573 1.9569-0.4586 7.8558-1.7945 5.0028-4.2219 7.2461-4.2309 3.91zm-6.44-13.22c-0.82-1.32 3.89-12.09 5.29-12.09 0.52827 0 0.87218 1.7182 0.76424 3.8183-0.21353 4.1543-4.7626 10.368-6.057 8.2741zm-5.56-12.97c0-2.2594 5.1388-12.157 6.0269-11.608 0.55314 0.34186 0.72929 1.0688 0.39144 1.6155-0.33785 0.54665 0.1642 1.8541 1.1157 2.9055 1.6553 1.8291 1.619 1.9537-0.84124 2.8891-1.4142 0.53765-3.0644 1.8991-3.6672 3.0254-1.1019 2.0589-3.0256 2.8043-3.0256 1.1723zm-5.99-13.37c0.003-0.6875 0.67839-2.5389 1.5-4.1143s1.4938-3.4328 1.4938-4.1276c0-2.1735 2.9076-4.0005 4.2424-2.6658 0.87683 0.87683 0.86655 1.4487-0.0424 2.3576-0.66 0.66-1.215 2.1225-1.2333 3.25-0.0373 2.2981-3.2032 6.55-4.877 6.55-0.59934 0-1.0869-0.5625-1.0836-1.25zm-4.314-11.391c-1.3608-1.3608-0.65087-4.7535 1.9084-9.1205 2.901-4.9501 4.6556-4.5856 3.7813 0.78549-0.60521 3.7179-4.541 9.4836-5.6897 8.335zm-6.0648-14.153c-0.87195-1.4108 5.6116-13.367 6.673-12.306 1.5531 1.5531-2.4018 13.08-4.4914 13.091-0.93004 0.005-1.9118-0.34871-2.1816-0.78536zm-3.6108-10.662c-0.57-1.48-1.03-3.27-1.03-3.99 0-2.5551 5.0366-12.655 6.0106-12.053 1.2262 0.75785 1.292 3.7665 0.11021 5.0434-1.8999 2.053-3.3352 8.4867-2.1988 9.856 0.82118 0.98947 0.72084 1.6455-0.39311 2.57-1.2467 1.0347-1.665 0.79615-2.5123-1.4324zm-8.03-20.05c0-0.827 0.9-3.1828 2-5.2352s2-4.5257 2-5.4964c0-1.8104 2.4564-2.4535 3.4194-0.89517 1.17 1.9-3.54 13.13-5.51 13.13-1.05 0-1.91-0.68-1.91-1.5zm-4.3333-14.163c-1.0486-1.0486-0.75834-4.4834 0.74338-8.7983 1.6604-4.7707 4.2696-6.361 3.143-1.9155-0.40152 1.5843-0.96052 4.793-1.2422 7.1305-0.49054 4.0705-1.1981 5.0294-2.6441 3.5833zm-7.9386-16.939c-0.67015-0.67014 1.5826-6.8592 3.2107-8.821 2.4606-2.9649 3.4498-0.12659 1.4978 4.2977-1.6602 3.763-3.6027 5.629-4.7085 4.5232zm-7.0105-15.011c-0.48346-0.48346 3.3946-9.3048 4.9754-11.318 2.1013-2.6754 1.9994 2.6068-0.13139 6.8118-2.4879 4.9097-3.4994 5.8505-4.844 4.5058zm-7.09-14.14c1.6766-5.2005 5.0192-11.25 6.2161-11.25 0.78123 0 1.1336 0.6183 0.8193 1.4374-0.30338 0.7906-1.0418 3.258-1.641 5.483-0.59914 2.225-1.9445 4.5032-2.9896 5.0625-2.6371 1.4113-3.0551 1.2839-2.4048-0.73299zm-5.63-14.78c0-2.29 4.87-11.47 6.08-11.47 1.1898 0 0.64755 2.0915-2.2268 8.5893-1.9382 4.3815-3.8575 5.8132-3.8575 2.8775zm-5.6914-12.105c-0.81189-2.1157 2.677-12.419 4.4336-13.093 2.5183-0.96635 2.5999 0.7309 0.27395 5.6969-1.7866 3.8145-2.0587 5.2782-1.1782 6.3391 0.62962 0.75865 0.84867 1.6754 0.48678 2.0374-1.2076 1.2076-3.38 0.6773-4.0161-0.98033zm-5.789-17.33c-0.76-1.22 3.2-10.03 4.5-10.03 1.5496 0 1.1405 2.7553-1.0453 7.0398-2.1459 4.2063-2.5132 4.5239-3.4601 2.9918zm-5.32-12.23c-1.6811-1.6811-1.5518-2.4055 1.5089-8.4501 2.4605-4.8593 6.4771-7.883 4.8545-3.6545-0.35783 0.93249-1.371 3.97-2.2515 6.75-1.9349 6.1089-2.5528 6.9136-4.1118 5.3546zm-5.803-16.208c-0.88481-2.3058 3.6022-11.993 4.9368-10.658 0.63117 0.63117 0.3458 2.6596-0.8117 5.7698-2.207 5.93-3.2508 7.167-4.1251 4.8886zm-6.4-11.48c0-2.12 4.92-12.11 5.96-12.11 1.285 0 0.45245 4.0035-1.8566 8.9278-1.5636 3.3346-4.1074 5.3065-4.1074 3.184zm97.09 253.28c1.1341-1.3666 1.0479-1.8179-0.57381-3.0038-2.35-1.7183-3.9674-0.38565-3.048 2.5113 0.79876 2.5167 1.8259 2.6563 3.6218 0.49245zm41.99-10.39c2.295 0 2.5195-2.2561 0.39945-4.0156-1.2429-1.0315-1.8786-0.93478-3.5 0.53255-2.4054 2.1769-2.6777 4.9642-0.39945 4.09 0.86998-0.33385 2.445-0.60699 3.5-0.60699zm-49.097-1.75c-0.0363-1.7778-1.7466-3.4443-2.4187-2.3568-0.37621 0.60872-0.4059 1.5568-0.066 2.1068 0.72089 1.1664 2.5071 1.3461 2.4847 0.25zm40.301-6.8978c-2.6537-2.172-2.6819-2.282-0.59503-2.3163 2.839-0.0466 3.6848-1.4792 1.798-3.0451-1.7858-1.482-4.469 0.22823-4.5208 2.8816-0.0175 0.89516-0.6925 2.5011-1.5 3.5687-2.2527 2.9783-1.7732 4.4226 1.7733 5.3416 5.0206 1.301 7.1068-3.1056 3.0445-6.4305zm29.22 5.89c0-0.95-6.82-6.24-8.04-6.24-1.2095 0-0.24876 3.8702 1.2944 5.2145 3.149 2.7432 6.75 3.2912 6.75 1.0271zm-13.5-6.7c0-1.4414-0.83045-2.9093-2-3.5352-2.3439-1.2544-2.9883 2.6117-0.8 4.8 1.8577 1.8577 2.8 1.4321 2.8-1.2648zm9.2644-2.133c0.98-0.98-0.36-3.41-1.87-3.41-0.76 0-1.39 0.6-1.39 1.33 0 2.2148 1.9088 3.4246 3.2644 2.0689zm-71.26-2.35c0-1.1799-1.9504-2.442-2.6667-1.7257-0.71 0.72 0.55 2.67 1.73 2.67 0.52 0 0.94-0.42 0.94-0.94zm42.171-0.71401c2.41-2.19 2.33-4.35-0.17-4.35-2.601 0-2.5978-2.6104 0.004-3.2908 2.3954-0.62642 1.6283-3.9783-0.80296-3.5083-1.5622 0.302-7.1073 9.2359-7.1682 11.549-0.0486 1.8463 5.9823 1.5462 8.1383-0.40499zm9.83 0.15c0-0.825-0.45-1.5-1-1.5s-1 0.675-1 1.5 0.45 1.5 1 1.5 1-0.675 1-1.5zm13-2.5314c0-2.0157-2.519-3.7829-3.7037-2.5983-0.54 0.54 2.43 4.63 3.35 4.63 0.19 0 0.35-0.91 0.35-2.03zm-9-4.67c0-2.011-0.28907-2.4109-1.1328-1.5672-0.62303 0.62303-0.86216 1.838-0.53139 2.7 0.91 2.39 1.66 1.88 1.66-1.13zm-54.17-1.13c0.27462-1.9388-0.0612-2.2746-2-2-1.5534 0.22003-2.44 1.1067-2.6601 2.6601-0.27462 1.9388 0.0612 2.2746 2 2 1.5534-0.22003 2.44-1.1067 2.6601-2.6601zm63.884-2.8842c-1.3759-1.3759-1.9397-1.457-2.9572-0.42553-1.0114 1.0253-0.87666 1.5553 0.68911 2.7109 2.7008 1.9933 4.6165 0.0631 2.268-2.2854zm-18.73-0.54c-0.012-1.7567-0.21673-1.9316-0.93402-0.79775-0.50529 0.79874-0.69684 1.8112-0.42567 2.25 0.86737 1.4034 1.3754 0.86078 1.3597-1.4522zm11.604-4.4949c-1.0924-1.0924-1.8415 0.64486-1.0572 2.4518 0.74368 1.7134 0.79759 1.7118 1.2119-0.0351 0.2385-1.0056 0.16886-2.093-0.15476-2.4167zm-63.78-1.46c1.9478-1.9478 1.4537-4.8-0.83138-4.8-2.2414 0-3.5001 2.1727-2.607 4.5 0.69516 1.8116 1.828 1.9104 3.4384 0.3zm55.513-2.8871c-1.3278-1.3278-2.7993 0.49104-1.759 2.1743 0.48382 0.78285 0.97617 0.78285 1.759 0 0.78284-0.78284 0.78284-1.3914 0-2.1743zm-60.31-10.91c0-1.1-0.1882-2-0.41821-2-0.23002 0-1.13-0.27314-2-0.60699-1.6119-0.61853-2.3398 2.5157-0.91512 3.9403 1.37 1.38 3.33 0.6 3.33-1.33zm43.298 1.3685c1.3925-1.3925-1.3679-4.5555-2.8802-3.3004-1.0942 0.90808-1.1685 1.5275-0.30782 2.5646 1.2374 1.491 2.2087 1.7152 3.188 0.73584zm-49.3-13.07c0-2.011-0.28907-2.4109-1.1328-1.5672-0.62303 0.62303-0.86216 1.838-0.53139 2.7 0.91 2.39 1.66 1.88 1.66-1.13zm-4.5-12.314c0-2.1435-2.9057-1.8339-3.3271 0.35451-0.25736 1.3364 0.14991 1.7437 1.4863 1.4863 1.0124-0.19498 1.8408-1.0234 1.8408-1.8408zm58.5-10.37c0-0.75765-0.63494-1.9045-1.411-2.5486-1.9024-1.5789-3.1999 0.48511-1.5527 2.4699 1.5245 1.8369 2.9636 1.8751 2.9636 0.0786zm-64.57-0.50913c0.90901-1.4708-2.3373-3.606-3.5852-2.3581-0.58877 0.58877-0.76814 1.5597-0.3986 2.1576 0.80999 1.3106 3.2227 1.432 3.9838 0.20044zm40.57-6.61c0-0.825-0.45-1.5-1-1.5s-1 0.675-1 1.5 0.45 1.5 1 1.5 1-0.675 1-1.5zm-48-7.5c0-2-0.5-3-1.5-3-1.8246 0-1.9129 1.366-0.25945 4.0136 1.63 2.61 1.76 2.53 1.76-1.01zm65 1.559c0-1.5926-1.8144-3.078-2.6901-2.2023-0.82 0.82 0.46 3.64 1.66 3.64 0.57 0 1.03-0.65 1.03-1.44zm-21-5.3679c0-4.0933-2.6895-5.9667-4.1052-2.8595-1.073 2.3551-1.0467 2.9599 0.16209 3.7247 2.2978 1.4538 3.9431 1.0928 3.9431-0.86517zm15.631-6.7114c-0.33906-0.88358-1.0915-1.3129-1.6721-0.9541-0.72494 0.44804-0.68251 1.102 0.13544 2.0875 1.453 1.7508 2.3808 1.0664 1.5367-1.1334zm-21.103-4.5237c0.9-1.46-2.24-5.96-4.15-5.96-0.86381 0-1.8353 1.0125-2.159 2.25-0.78389 2.9976-0.70863 3.1469 1.9666 3.9003 3.3985 0.95716 3.631 0.94674 4.3362-0.1943zm-44.53-6.76c0-1.8548-1.7868-4.2-3.2-4.2-1.234 0-0.94614 3.4539 0.4 4.8 1.7152 1.7152 2.8 1.4827 2.8-0.6zm35.965-4.2c1.7292 0 3.5443-3.6126 2.191-4.3608-3.1586-1.7462-5.9244-1.4407-7.1161 0.78599-1.4551 2.7189-0.55584 4.9867 1.6429 4.1429 0.82-0.31 2.29-0.57 3.29-0.57zm14.04-7.94c0-1.3573-1.7645-2.249-2.4037-1.2148-0.6 0.96 0.26 2.15 1.57 2.15 0.45 0 0.83-0.42 0.83-0.94zm-57.494-2.068c1.09-1.77-0.57-4.99-2.58-4.99-2.1906 0-2.6331 2.8995-0.73261 4.8 1.465 1.465 2.4819 1.5238 3.3055 0.19105zm47.49-3.496c-1.0255-1.2357-1.4933-1.3083-2.1004-0.32592-1.0486 1.6966 1.0773 4.2581 2.4198 2.9156 0.66666-0.66666 0.56021-1.5299-0.31935-2.5897zm13.269-1.0928c0.97-0.97-0.37-3.4-1.88-3.4-0.76 0-1.39 0.6-1.39 1.33 0 2.2148 1.9088 3.4246 3.2644 2.0689zm-10.16-8.69c-0.81-0.81-1.11-0.7-1.11 0.42 0 1.9879 1.3447 3.3326 1.8417 1.8417 0.21083-0.6325-0.1173-1.6506-0.72917-2.2625zm-13.145 0.22673c-1.2461-2.3284-3.3043-2.1147-3.7908 0.39364-0.2352 1.2127 0.38765 1.6671 2.2852 1.6671 2.3243 0 2.4883-0.22455 1.5056-2.0608zm-44.96-2.94c0-1.1111-0.66667-2-1.5-2s-1.5 0.88889-1.5 2 0.66667 2 1.5 2 1.5-0.88889 1.5-2zm61.5-3c0-0.73333-0.5625-1.5208-1.25-1.75-0.74359-0.24786-1.25 0.46111-1.25 1.75s0.50641 1.9979 1.25 1.75c0.6875-0.22917 1.25-1.0167 1.25-1.75zm-21.5-5.88c0-2.2521-2.4943-4.553-3.9562-3.6495-2.26 1.4-1.18 5.53 1.46 5.53 1.779 0 2.5-0.5415 2.5-1.8776zm20.954-2.2081c-0.61391-1.1471-1.3603-1.8415-1.6587-1.5431-0.82426 0.82426 0.49605 3.6288 1.7084 3.6288 0.73956 0 0.72434-0.63946-0.0496-2.0856zm-66.85-3.21c-1.2835-1.2835-2.585-0.2915-1.6348 1.246 0.36808 0.59556 1.1274 0.79971 1.6873 0.45366 0.683-0.42212 0.66575-0.98146-0.0524-1.6996zm61.667-1.8913c-0.62-1.85-2.77-2.16-2.77-0.39 0 0.87 0.71 1.58 1.58 1.58 0.87084 0 1.4052-0.53438 1.1875-1.1875zm-13.77-2.81c0-0.55-0.675-1-1.5-1s-1.5 0.45-1.5 1 0.675 1 1.5 1 1.5-0.45 1.5-1zm-6.6563-13.794c-0.31-1.22-0.97-2.21-1.46-2.21-1.1863 0-1.1133 0.659 0.32878 2.9681 1.4965 2.3963 1.8884 2.1325 1.1316-0.76176zm11.873-6.3897c-1.5275-1.5275-2.6546-0.40039-1.8074 1.8074 0.50024 1.3036 0.93392 1.4328 1.8235 0.54313 0.88963-0.88963 0.88579-1.4486-0.0161-2.3506zm-65-2c-1.5275-1.5275-2.6546-0.40039-1.8074 1.8074 0.50024 1.3036 0.93392 1.4328 1.8235 0.54313 0.88963-0.88963 0.88579-1.4486-0.0161-2.3506zm56.79-0.82c0-1.1111-0.66667-2-1.5-2-1.5224 0-2.0513 2.1154-0.83333 3.3333 1.26 1.27 2.33 0.66 2.33-1.33zm-8.9425-3.8926c-0.62-1.16-1.56-2.11-2.1-2.11-1.3646 0-1.1997 3.3651 0.23518 4.8 1.8046 1.8046 3.1897-0.20336 1.8575-2.6926zm-46.06-2.49c0-2.4822-2.2039-5.0852-3.342-3.9471-1.64 1.65-0.65 6.33 1.34 6.33 1.4392 0 2-0.66667 2-2.3776zm58-2.051c0-1.6187-2.9734-4.9313-3.7391-4.1656-0.27558 0.27558-0.21344 1.647 0.1381 3.0476 0.67064 2.6721 3.601 3.5818 3.601 1.118zm-8-3.449c0-1.9262-2.6414-4.8143-3.5616-3.8942-0.71 0.7 1.68 5.77 2.72 5.77 0.46 0 0.84-0.84 0.84-1.88zm-56-7.4815c0-2.7425-1.7637-4.6689-3.6219-3.9558-1.805 0.69264-1.7433 2.3485 0.19028 5.1091 1.8229 2.6025 3.4316 2.0619 3.4316-1.1532zm46 1.8c0-0.85746-0.45-1.2809-1-0.94098s-1 1.0415-1 1.559c0 0.51754 0.45 0.94098 1 0.94098s1-0.70156 1-1.559zm11.771-4.253c0.21761-0.65284-0.33617-1.4678-1.2306-1.811-2.0861-0.8005-2.7557-0.10262-1.9404 2.0222 0.70046 1.8254 2.5328 1.7034 3.171-0.21111zm-7.77-3.13c0-1.0675-0.41157-2.1954-0.91459-2.5062-1.096-0.67738-1.9774 1.4397-1.3311 3.1972 0.71438 1.9426 2.2457 1.4714 2.2457-0.69098zm-14.177-1.7379c-0.42944-2.2299-2.208-2.278-2.633-0.0711-0.2108 1.0946 0.27967 1.75 1.3096 1.75 1.0034 0 1.5203-0.65585 1.3233-1.6789zm5.4267-0.73778c0.1375-0.50416-0.3125-1.1042-1-1.3333-0.6875-0.22917-1.25 0.33333-1.25 1.25 0 1.6934 1.7928 1.7598 2.25 0.0833zm-47.25-5.08c0-1.51-0.5706-2.5-1.441-2.5-2.11 0-2.9129 1.8687-1.5227 3.5438 1.8 2.18 2.96 1.77 2.96-1.04zm37-4.4349c0-1.84-1.97-6.07-2.81-6.07-1.1951 0-3.3408 4.9394-2.639 6.0749 0.74816 1.2105 5.4537 1.202 5.4537-0.01zm13-1.5061c0-0.79254-0.41891-1.6999-0.9309-2.0163-1.1889-0.73478-2.3846 1.1378-1.5691 2.4573 0.91956 1.4879 2.5 1.2091 2.5-0.44098zm-9-2.5c0-0.51754-0.45-1.2191-1-1.559-0.55-0.33992-1 0.0835-1 0.94098 0 0.85746 0.45 1.559 1 1.559s1-0.42344 1-0.94098zm-46-3.5c0-1.7428-1.6397-2.8998-2.9563-2.086-1.331 0.83-0.133 3.53 1.566 3.53 0.76 0 1.39-0.65 1.39-1.44zm44-3.9366c0-2.0231-2.6451-4.0057-3.4996-2.6231-0.99 1.6 0.19 4 1.97 4 0.84 0 1.53-0.62 1.53-1.38zm-7.7251-1.5656c0.57-2.15-2.01-5.05-4.49-5.05-1.6342 0-3.271 4.396-2.2512 6.046 1.128 1.8252 6.2052 1.0807 6.7465-0.98917zm19.778-5.4181c-1.1129-2.9272-2.5404-3.4162-3.4039-1.1661-0.32541 0.84802 0.34588 2.1107 1.5827 2.977 2.7016 1.8922 3.0844 1.5116 1.8212-1.8109zm-60.709-0.84502c0.31733-1.2135 0.33302-2.4503 0.03487-2.7484-0.78406-0.78406-3.4147 3.0872-2.7875 4.1021 0.93489 1.5127 2.1607 0.90986 2.7527-1.3536zm52.659-1.13c0-1.2898-0.9-3.1595-2-4.155-2.339-2.1168-2.7401-0.57677-1.0248 3.9349 1.22 3.2088 3.0248 3.3401 3.0248 0.22009zm-57.882-1.9c0.16052-1.6943 0.10157-1.9215-3.3085-12.75-1.6454-5.225-3.8438-12.425-4.8852-16s-2.297-7.4-2.79-8.5c-0.492-1.1-1.903-5.38-3.134-9.5-1.231-4.125-2.6069-8.4-3.0577-9.5-0.45073-1.1-1.8186-5.15-3.0397-9s-2.6563-7.45-3.1893-8c-2.1329-2.201 2.2453 16.523 4.4312 18.95 0.4705 0.5225 0.85546 2.0146 0.85546 3.3157 0 1.3012 0.44613 3.1993 0.9914 4.2182 0.54527 1.0188 1.6546 4.2518 2.4652 7.1843 2.7067 9.792 9.384 31.163 10.392 33.26 0.54763 1.1394 1.2643 3.3091 1.5925 4.8216 0.60219 2.7746 2.4579 3.8144 2.6772 1.5zm48.882 0.42c0-0.45834-0.33176-1.1651-0.73725-1.5706-0.40548-0.40549-0.74298-1.493-0.75-2.4167 0-0.92-0.69-1.68-1.51-1.68-1.4124 0-1.5929 1.9581-0.48388 5.25 0.46538 1.3814 3.4839 1.7424 3.4839 0.41667zm-9.4249-3.6098c0.83-3.32-0.15-4.56-3.62-4.56-2.9901 0-5.0273 3.4641-3.4952 5.9432 1.3623 2.2043 6.4584 1.2106 7.1102-1.3863zm-34.32-2.81c0.51829-1.5171-2.0873-9.525-3.354-10.308-0.49852-0.3081-0.90899-1.3211-0.91217-2.2512-0.0065-1.8966-4.4845-16.056-8.4413-26.691-1.4324-3.85-4.6653-13.19-7.1842-20.756-4.389-13.18-6.368-17.17-6.368-12.84 0 2.1525 5.9166 21.176 11.695 37.603 1.9347 5.5 3.8656 11.35 4.2908 13 0.42523 1.65 1.9524 6.4543 3.3936 10.676 1.4413 4.222 2.6205 8.2945 2.6205 9.05 0 2.7991 3.4651 4.8517 4.2604 2.5237zm54.74-2.25c0-0.825-0.675-1.5-1.5-1.5-1.5616 0-1.984 1.1827-0.83333 2.3333 1.15 1.15 2.33 0.73 2.33-0.83zm-40.42-8.5c3.2213 0 2.8908-1.3777-3.8267-15.949-1.6352-3.5472-4.7561-10.522-6.9353-15.5-2.176-4.98-5.902-13.1-8.277-18.05s-4.644-10.12-5.042-11.5c-0.82829-2.8592-6.3977-13-7.1398-13-7.264 0-4.5578 19.705 5.5618 40.5 1.7552 3.6068 11.209 29.908 12.207 33.961 1.6263 6.6049 2.4685 6.9379 7.6125 3.0102 2.5-1.91 5.13-3.47 5.84-3.47zm31.519 4.7038c-1.2835-1.2835-2.585-0.2915-1.6348 1.246 0.36808 0.59556 1.1274 0.79971 1.6873 0.45366 0.683-0.42212 0.66575-0.98146-0.0524-1.6996zm8.2955-1.5408c0.63-1.02-2.14-5.16-3.46-5.16-1.3475 0-1.1669 3.3764 0.2567 4.8 1.4075 1.4075 2.4786 1.529 3.1993 0.36297zm-10.942-5.0939c0.73955-1.1966-1.1416-2.3822-2.4736-1.559-1.12 0.69-0.39 2.49 1.01 2.49 0.48508 0 1.1409-0.41891 1.4573-0.9309zm-21.745-2.1813c0.81627-0.81627 0.47037-2.3193-1.3-5.6489-1.33-2.5-2.42-4.91-2.42-5.36 0-0.78-2.34-5.75-20.583-43.63-7.071-14.68-9.417-18.45-9.417-15.11 0 1.1271 1.1124 3.6876 7.5422 17.36 1.8106 3.85 4.4165 9.7 5.7908 13 1.3744 3.3 4.059 9.375 5.9658 13.5s5.0947 11.028 7.0841 15.339c1.9894 4.3115 3.6171 8.399 3.6171 9.0833 0 2.514 1.9097 3.2679 3.7122 1.4653zm8.1009-3.1559c0.32928-1.7098-5.2038-13.198-24.636-51.15-8.632-16.85-12.18-22.26-12.18-18.56 0 0.6547 1.4048 4.1797 3.1218 7.8333 7.2329 15.391 11.497 24.401 17.58 37.143 3.5445 7.425 7.3011 15.3 8.3481 17.5s2.3654 5.2702 2.9298 6.8228c1.1388 3.1326 4.2582 3.3966 4.8335 0.40914zm12.16-0.98c-0.009-0.6875-6.7689-13.625-15.022-28.75-8.2533-15.125-16.458-30.512-18.234-34.194-3.0726-6.3716-4.7279-8.3119-4.7279-5.5419 0 1.3915 6.9504 15.052 17 33.412 3.575 6.5314 7.3237 13.664 8.3304 15.849 6.05 13.14 10.28 20.48 11.79 20.48 0.48266 0 0.87027-0.5625 0.86136-1.25zm8.02-0.35c0-0.8776-0.85965-2.8029-1.9103-4.2784-1.0507-1.4756-2.993-4.695-4.3163-7.1544-6.0162-11.181-10.133-18.561-10.923-19.58-0.47266-0.60944-2.4944-4.2094-4.4928-8s-4.5229-8.1589-5.6101-9.7074-3.558-5.8235-5.4907-9.5c-3.9481-7.51-5.111-9.1845-6.3789-9.1845-1.8253 0-0.69797 2.8428 5.1224 12.917 3.3 5.7119 6 10.776 6 11.254 0 0.47775 1.202 2.7722 2.6711 5.0988s4.6635 8.0551 7.0987 12.73c2.4352 4.675 4.946 9.175 5.5795 10 0.63354 0.825 2.9516 4.9837 5.1513 9.2415 3.8036 7.3626 7.4994 10.4 7.4994 6.1628zm-75-67.18c0-0.98-5.848-15.9-12.995-33.17-11.042-26.68-13.825-34.332-11.616-31.97 0.577 0.62 8.611 17.79 8.611 18.41 0 1.3489 17.458 44.719 18.686 46.42 0.36943 0.51193 8.2602-3.0108 8.8379-3.9456 0.44906-0.7266-4.667-13.92-9.6792-24.961-1.6229-3.575-3.3195-7.4-3.7702-8.5-0.45066-1.1-2.0823-4.7-3.6258-8s-4.0473-9.15-5.5638-13c-2.7565-6.9977-2.7585-6.9999-6.3408-6.6696-3.996 0.37-6.108-1.391-14.544-12.122-11.559-14.703-16.92-18.211-6.89-4.508 5.306 7.248 14.89 25.41 14.89 28.22 0 0.80553 0.45 1.7427 1 2.0826 0.55 0.33992 1 1.3184 1 2.1744 0 0.85598 1.575 4.9195 3.5 9.0301s3.5 8.5587 3.5 9.8846c0 1.326 0.40781 2.4109 0.90625 2.4109 0.99564 0 9.0924 18.978 10.986 25.75 1.194 4.27 3.108 5.79 3.108 2.47zm16.619-6.6698c0.30566-0.79653-0.12835-2.709-0.96446-4.25-3.372-6.21-26.723-58.621-28.094-63.05-0.721-2.331-2.561-3.122-2.561-1.101 0 1.014 10.941 26.581 20.478 47.851 1.8495 4.125 4.5234 10.1 5.9421 13.277 1.4187 3.1775 2.5794 6.44 2.5794 7.25 0 1.8962 1.8935 1.9139 2.6185 0.0244zm1.9644-10.82c-2.356-5.08-7.767-17.11-12.023-26.73s-9.115-20.16-10.797-23.416c-1.681-3.254-4.065-9.779-5.297-14.5-4.188-16.053-7.734-26.579-9.63-28.583-2.081-2.202-2.147-2.511 2.437 11.499 0.80976 2.475 2.2433 7.875 3.1856 12 1.3498 5.9085 14.896 38.564 19.587 47.218 0.84026 1.5501 6.2847 13.467 12.603 27.585 1.3051 2.9164 2.7883 5.0458 3.296 4.732 0.50768-0.31376-1.0049-4.7249-3.3613-9.8025zm-36.886-60.639c-1.401-18.065-3.01-27.07-5.754-32.197-0.662-1.237-1.817-4.882-2.568-8.1-2.062-8.84-15.279-39.953-18.307-43.097-0.718-0.7446-20.432 6.658-22.488 8.444-1.1467 0.996 0.7975 7.448 4.4772 14.859 1.5021 3.025 3.1846 6.625 3.739 8 11.732 29.098 13.324 32.004 25.083 45.798 5.1586 6.0512 9.6586 11.411 10 11.91 4.4111 6.4513 6.59 4.3477 5.8176-5.6167z"/>
</svg>
